# xmcd
#
# Track frame offsets:
#	150
#	13400
#	23375
#	37315
#	50262
#	64300
#	80190
#	93645
#	107192
#	119475
#	131010
#	145122
#	155907
#	170110
#	185985
#	200397
#
# Disc length: 2855 seconds
#
# Revision: 0
# Processed by: cddbd v1.5.2PL0 Copyright (c) Steve Scherf et al.
# Submitted via: EasyCDDAExtractor 16.0.6.1
#
DISCID=f90b2510
DTITLE=Μαυράκη Φωτεινή - Τα βάσανα με ζώσανε-Φ. Μαυράκη
DYEAR=2003
DGENRE=Λαϊκή
TTITLE0=Δεν θέλω να κλαις [Σ. Βαλιανού-Λ. Τσώλη]
TTITLE1=Όταν ραγίσει το γυαλί [Οδ. Μοσχονά]
TTITLE2=Είμαι να με κλαις [Β. Ατραΐδη]
TTITLE3=Με τα λόγια σου με δέρνεις [Φ. Μαυράκη]
TTITLE4=Πού θα πας [Σ. Βαρτάνη]
TTITLE5=Τα βάσανα με ζώσανε [Λ. Μπουρνέλη]
TTITLE6=Θα τραγουδήσω και θα πω [Β. Βασιλειάδη-Μ. Μπιζάνη]
TTITLE7=Όσο υπάρχουν άνθρωποι [Β. Ατραΐδη]
TTITLE8=Έχω υποψίες [Τ. Σούκα-Ηρ. Παπασιδέρη]
TTITLE9=Τώρα που τα 'κονόμησες [Τ. Σούκα-Ηρ. Παπασιδέρη]
TTITLE10=Πέφτει το φως του καντηλιού [Β. Γιαννούλη]
TTITLE11=Βαδίζω άτακτα [Γ. Μπούρα-Π. Πολίτου]
TTITLE12=Παραβίασες τους νόμους [Θ. Καμπουρίδη-Λ. Τσώλη]
TTITLE13=Ας πάει και το παλιάμπελο [Τ. Λαβίδα]
TTITLE14=Είσαι εγωιστής [Τ. Σούκα-Λ. Τσώλη]
TTITLE15=Η εμένα ή την άλλη [Τ. Σούκα-Ηρ. Παπασιδέρη]
EXTD=
EXTT0=
EXTT1=
EXTT2=
EXTT3=
EXTT4=
EXTT5=
EXTT6=
EXTT7=
EXTT8=
EXTT9=
EXTT10=
EXTT11=
EXTT12=
EXTT13=
EXTT14=
EXTT15=
PLAYORDER=
